<svg width="24" height="24" viewBox="0 0 24 24" fill="none" xmlns="http://www.w3.org/2000/svg">
<path d="M8.1358 14.7075L6.51663 7.14531H18.8081C19.8286 7.14531 20.5512 8.14235 20.2336 9.11219L18.3509 14.8603C18.1491 15.4766 17.574 15.8934 16.9254 15.8934H9.60256C8.89516 15.8934 8.28391 15.3992 8.1358 14.7075Z" stroke="#525661" stroke-width="1.4"/>
<path d="M16.4003 21.0008C17.2839 21.0008 18.0003 20.2844 18.0003 19.4008C18.0003 18.5172 17.2839 17.8008 16.4003 17.8008C15.5164 17.8008 14.8003 18.5172 14.8003 19.4008C14.8003 20.2844 15.5164 21.0008 16.4003 21.0008Z" fill="#525661"/>
<path d="M10.2343 21.0008C11.1178 21.0008 11.8343 20.2844 11.8343 19.4008C11.8343 18.5172 11.1178 17.8008 10.2343 17.8008C9.35071 17.8008 8.63428 18.5172 8.63428 19.4008C8.63428 20.2844 9.35071 21.0008 10.2343 21.0008Z" fill="#525661"/>
<path d="M2.71875 2.99531C2.33215 2.99531 2.01875 3.30871 2.01875 3.69531C2.01875 4.08191 2.33215 4.39531 2.71875 4.39531V2.99531ZM5.86347 4.08945L5.17934 4.23766L5.86347 4.08945ZM7.3202 7.50774L6.5476 3.94125L5.17934 4.23766L5.95194 7.80415L7.3202 7.50774ZM5.37481 2.99531H2.71875V4.39531H5.37481V2.99531ZM6.5476 3.94125C6.42802 3.38922 5.93965 2.99531 5.37481 2.99531V4.39531C5.28067 4.39531 5.19927 4.32966 5.17934 4.23766L6.5476 3.94125Z" fill="#525661"/>
</svg>
