<svg width="24" height="24" viewBox="0 0 24 24" fill="none" xmlns="http://www.w3.org/2000/svg">
<path d="M15.8081 7.72908C15.391 7.66873 15.0296 7.40566 14.8408 7.02492L13.0418 3.39749C12.6008 2.50832 11.3325 2.5084 10.8916 3.39762L9.09325 7.02479C8.90445 7.4056 8.54302 7.66874 8.12586 7.72909L4.08783 8.32763C3.10423 8.47343 2.71452 9.68362 3.42822 10.376L6.32806 13.1891C6.63679 13.4886 6.7779 13.9237 6.7045 14.3498L6.02053 18.3224C5.85194 19.3016 6.87832 20.0497 7.75892 19.5895L11.3756 17.6995C11.7462 17.5056 12.1869 17.5056 12.5575 17.6994C14.1439 18.5292 15.3262 19.1459 16.193 19.5972C17.0704 20.054 18.0841 19.3102 17.9161 18.3354L17.2296 14.3498C17.1562 13.9237 17.2973 13.4886 17.606 13.1891L20.5058 10.376C21.2195 9.68362 20.8298 8.47343 19.8462 8.32763L15.8081 7.72908Z" stroke="#525661" stroke-width="1.4" stroke-linejoin="round"/>
</svg>
