<svg width="24" height="24" viewBox="0 0 24 24" fill="none" xmlns="http://www.w3.org/2000/svg">
<g clip-path="url(#clip0_2164_26355)">
<path d="M11.8468 3.8125C9.86743 3.8125 7.6798 4.20481 6.3797 4.54474C5.7973 4.69701 5.43251 5.23406 5.43896 5.836C5.46083 7.87737 5.56567 9.7852 5.9375 11.2432C6.94136 15.1794 10.9844 17.2969 12 17.2969C13.0156 17.2969 17.0982 15.2419 18.0938 11.25C18.4491 9.8252 18.5424 7.95434 18.5617 5.94061C18.5676 5.33211 18.1971 4.78739 17.6101 4.62692C16.2422 4.25298 13.9437 3.8125 11.8468 3.8125Z" stroke="#525661" stroke-width="1.4"/>
<path d="M9.36668 10.3003C9.36668 10.3003 14.1648 10.4845 14.4715 10.3003C14.7782 10.1161 15.3917 7.8135 15.304 7.58323C15.2164 7.35297 13.3865 7.02185 12.0615 6.96155C10.7317 6.90104 8.6875 7.46813 8.6875 7.46813C8.72238 8.65583 9.14836 11.149 10.3729 12.5924C11.0975 13.6276 12.7882 13.6103 13.6336 13.1273" stroke="#525661" stroke-width="1.4" stroke-linecap="round" stroke-linejoin="round"/>
<path d="M9.13135 20.7773H14.8687" stroke="#525661" stroke-width="1.4" stroke-linecap="round"/>
<path d="M12 17.1914V20.7773" stroke="#525661" stroke-width="1.4"/>
<path d="M20.1567 12.8051C20.5317 11.8173 20.7905 9.70875 20.7998 8.59766" stroke="#525661" stroke-width="1.4" stroke-linecap="round"/>
<path d="M3.84286 12.8051C3.46782 11.8173 3.20905 9.70875 3.19971 8.59766" stroke="#525661" stroke-width="1.4" stroke-linecap="round"/>
</g>
<defs>
<clipPath id="clip0_2164_26355">
<rect width="24" height="24" fill="white"/>
</clipPath>
</defs>
</svg>
